<?xml version="1.0" encoding="utf-8"?>
<!-- Generator: Adobe Illustrator 19.0.0, SVG Export Plug-In . SVG Version: 6.00 Build 0)  -->
<svg version="1.1" id="圖層_1" xmlns="http://www.w3.org/2000/svg" xmlns:xlink="http://www.w3.org/1999/xlink" x="0px" y="0px"
	 viewBox="0 0 386.4 145.7" style="enable-background:new 0 0 386.4 145.7;" xml:space="preserve">
<style type="text/css">
	.st0{fill:url(#XMLID_130_);}
	.st1{fill:url(#XMLID_131_);}
	.st2{fill:#FFFFFF;}
	.st3{fill:url(#XMLID_132_);}
	.st4{fill:url(#XMLID_135_);}
	.st5{fill:url(#XMLID_137_);}
</style>
<g id="XMLID_127_">
	<g id="XMLID_128_">
		<g id="XMLID_129_">
			<g id="XMLID_168_">
				<linearGradient id="XMLID_130_" gradientUnits="userSpaceOnUse" x1="16.8536" y1="86.6842" x2="47.3205" y2="86.6842">
					<stop  offset="0" style="stop-color:#C7000B"/>
					<stop  offset="1" style="stop-color:#D80C24"/>
				</linearGradient>
				<polygon id="XMLID_143_" class="st0" points="47.3,39.3 47.3,117.9 16.9,134.1 16.9,55.5 				"/>
			</g>
			<g id="XMLID_165_">
				<g id="XMLID_166_">
					<linearGradient id="XMLID_131_" gradientUnits="userSpaceOnUse" x1="32.6047" y1="63.6008" x2="48.1568" y2="41.3836">
						<stop  offset="0" style="stop-color:#910000"/>
						<stop  offset="1" style="stop-color:#C30D23"/>
					</linearGradient>
					<polygon id="XMLID_125_" class="st1" points="16.8,55.6 47.3,73.2 47.3,39.3 16.8,55.5 					"/>
				</g>
			</g>
			<g id="XMLID_145_">
				<path id="XMLID_163_" class="st2" d="M143.9,78.2V22.5h7.4v55.7H143.9z"/>
				<path id="XMLID_161_" class="st2" d="M163.4,78.2V37.8h6.2v5.7c3-4.4,7.2-6.6,12.8-6.6c2.4,0,4.7,0.4,6.7,1.3
					c2,0.9,3.6,2,4.6,3.4c1,1.4,1.7,3.1,2.1,5.1c0.3,1.3,0.4,3.5,0.4,6.6v24.8h-6.8V53.6c0-2.8-0.3-4.9-0.8-6.2
					c-0.5-1.4-1.5-2.5-2.8-3.3c-1.4-0.8-2.9-1.2-4.8-1.2c-2.9,0-5.4,0.9-7.5,2.8c-2.1,1.8-3.2,5.4-3.2,10.5v22H163.4z"/>
				<path id="XMLID_159_" class="st2" d="M208.3,78.2v-35h-6v-5.3h6v-4.3c0-2.7,0.2-4.7,0.7-6c0.7-1.8,1.5-2.9,3.2-4
					c1.7-1.1,3-1.7,6-1.7c1.9,0,4.1,0.2,5.6,0.6l-1,5.9c-0.7-0.2-2-0.3-3.3-0.3c-2.1,0-2.3,0.7-3.2,1.6c-0.9,0.9-1.3,2-1.3,4.5v3.7
					h7.9v5.3h-7.9v35H208.3z"/>
				<path id="XMLID_156_" class="st2" d="M230.4,30.3v-7.9h6.8v7.9H230.4z M230.4,78.2V37.8h6.8v40.3H230.4z"/>
				<path id="XMLID_154_" class="st2" d="M249.8,78.2V37.8h6.2v5.7c3-4.4,7.2-6.6,12.8-6.6c2.4,0,4.7,0.4,6.7,1.3
					c2,0.9,3.6,2,4.6,3.4c1,1.4,1.7,3.1,2.1,5.1c0.3,1.3,0.4,3.5,0.4,6.6v24.8h-6.8V53.6c0-2.8-0.3-4.9-0.8-6.2
					c-0.5-1.4-1.5-2.5-2.8-3.3c-1.4-0.8-2.9-1.2-4.8-1.2c-2.9,0-5.4,0.9-7.5,2.8c-2.1,1.8-3.2,5.4-3.2,10.5v22H249.8z"/>
				<path id="XMLID_151_" class="st2" d="M293.1,30.3v-7.9h6.8v7.9H293.1z M293.1,78.2V37.8h6.8v40.3H293.1z"/>
				<path id="XMLID_149_" class="st2" d="M327.3,72l1,6c-1.9,0.4-3.6,0.6-5.2,0.6c-2.5,0-4.4-0.4-5.8-1.2c-1.4-0.8-2.3-1.8-2.9-3.1
					c-0.6-1.3-0.8-4-0.8-8.1V43.1h-5v-5.3h5V26l6.8-3.7v15.5h6.9v5.3h-6.9v23.6c0,2,0.1,3.2,0.4,3.8c0.2,0.6,0.6,1,1.2,1.3
					c0.5,0.3,1.3,0.5,2.3,0.5C325.1,72.3,326.1,72.2,327.3,72z"/>
				<path id="XMLID_146_" class="st2" d="M363.7,65.2l7.1,0.9c-1.1,4.1-3.2,7.3-6.2,9.6c-3,2.3-6.9,3.4-11.5,3.4
					c-5.9,0-10.6-1.8-14-5.5c-3.5-3.6-5.2-8.7-5.2-15.3c0-6.8,1.7-12.1,5.2-15.8c3.5-3.7,8-5.6,13.6-5.6c5.4,0,9.8,1.8,13.2,5.5
					c3.4,3.7,5.1,8.8,5.1,15.5c0,0.4,0,1,0,1.8h-30.1c0.3,4.4,1.5,7.8,3.8,10.2c2.3,2.4,5.1,3.5,8.4,3.5c2.5,0,4.6-0.7,6.4-2
					C361.3,70.2,362.7,68,363.7,65.2z M341.3,54.1h22.5c-0.3-3.4-1.2-5.9-2.6-7.6c-2.2-2.6-5-3.9-8.5-3.9c-3.1,0-5.8,1.1-7.9,3.2
					C342.7,47.8,341.5,50.6,341.3,54.1z"/>
			</g>
			<g id="XMLID_133_">
				<path id="XMLID_142_" class="st2" d="M143.9,130.1V88.3h5.5v36.9h20.6v4.9H143.9z"/>
				<path id="XMLID_139_" class="st2" d="M195.9,126.4c-1.9,1.6-3.7,2.8-5.5,3.4c-1.8,0.7-3.7,1-5.7,1c-3.3,0-5.9-0.8-7.7-2.4
					c-1.8-1.6-2.7-3.7-2.7-6.2c0-1.5,0.3-2.8,1-4.1c0.7-1.2,1.6-2.2,2.7-3c1.1-0.7,2.3-1.3,3.7-1.7c1-0.3,2.5-0.5,4.6-0.8
					c4.2-0.5,7.2-1.1,9.2-1.8c0-0.7,0-1.2,0-1.3c0-2.1-0.5-3.6-1.5-4.4c-1.3-1.2-3.3-1.7-5.9-1.7c-2.4,0-4.2,0.4-5.4,1.3
					c-1.2,0.8-2,2.3-2.6,4.5l-5-0.7c0.5-2.2,1.2-3.9,2.3-5.2c1-1.3,2.6-2.3,4.5-3.1c2-0.7,4.3-1.1,6.9-1.1c2.6,0,4.7,0.3,6.3,0.9
					c1.6,0.6,2.8,1.4,3.6,2.3c0.8,0.9,1.3,2.1,1.6,3.5c0.2,0.9,0.3,2.5,0.3,4.7v6.9c0,4.8,0.1,7.8,0.3,9.1c0.2,1.3,0.7,2.5,1.3,3.6
					h-5.4C196.3,129.1,196,127.8,195.9,126.4z M195.4,114.9c-1.9,0.8-4.7,1.4-8.4,1.9c-2.1,0.3-3.6,0.6-4.5,1
					c-0.9,0.4-1.6,0.9-2,1.7c-0.5,0.7-0.7,1.5-0.7,2.4c0,1.4,0.5,2.5,1.6,3.4c1,0.9,2.6,1.4,4.6,1.4c2,0,3.7-0.4,5.3-1.3
					c1.5-0.9,2.7-2.1,3.4-3.6c0.6-1.2,0.8-2.9,0.8-5.1V114.9z"/>
				<path id="XMLID_136_" class="st2" d="M213.3,130.1h-4.8V88.3h5.1v14.9c2.2-2.7,4.9-4.1,8.3-4.1c1.9,0,3.6,0.4,5.3,1.1
					c1.7,0.8,3,1.8,4.1,3.2c1.1,1.4,1.9,3,2.5,4.9c0.6,1.9,0.9,4,0.9,6.2c0,5.2-1.3,9.2-3.9,12.1c-2.6,2.8-5.7,4.3-9.3,4.3
					c-3.6,0-6.4-1.5-8.4-4.5V130.1z M213.3,114.7c0,3.6,0.5,6.3,1.5,7.9c1.6,2.6,3.8,4,6.6,4c2.2,0,4.2-1,5.8-2.9
					c1.6-2,2.5-4.9,2.5-8.7c0-4-0.8-6.9-2.4-8.8c-1.6-1.9-3.5-2.8-5.7-2.8c-2.2,0-4.2,1-5.8,2.9C214.1,108.2,213.3,111,213.3,114.7z
					"/>
				<path id="XMLID_134_" class="st2" d="M239.1,121.1l5.1-0.8c0.3,2,1.1,3.6,2.4,4.7c1.3,1.1,3.1,1.6,5.5,1.6
					c2.4,0,4.1-0.5,5.3-1.4c1.1-1,1.7-2.1,1.7-3.4c0-1.2-0.5-2.1-1.5-2.7c-0.7-0.5-2.5-1-5.3-1.7c-3.8-1-6.4-1.8-7.8-2.5
					c-1.5-0.7-2.6-1.7-3.3-2.9c-0.8-1.2-1.1-2.6-1.1-4.1c0-1.4,0.3-2.6,0.9-3.8s1.5-2.1,2.5-2.9c0.8-0.6,1.9-1.1,3.3-1.5
					c1.4-0.4,2.9-0.6,4.4-0.6c2.4,0,4.5,0.3,6.3,1c1.8,0.7,3.1,1.6,4,2.8c0.9,1.2,1.4,2.7,1.8,4.7l-5,0.7c-0.2-1.6-0.9-2.8-2-3.7
					c-1.1-0.9-2.6-1.3-4.6-1.3c-2.4,0-4,0.4-5.1,1.2c-1,0.8-1.5,1.7-1.5,2.7c0,0.7,0.2,1.3,0.6,1.8c0.4,0.6,1.1,1,2,1.4
					c0.5,0.2,2,0.6,4.5,1.3c3.6,1,6.2,1.8,7.6,2.4c1.4,0.6,2.6,1.5,3.4,2.7c0.8,1.2,1.2,2.6,1.2,4.4c0,1.7-0.5,3.3-1.5,4.8
					c-1,1.5-2.4,2.7-4.3,3.5c-1.9,0.8-4,1.2-6.4,1.2c-3.9,0-6.9-0.8-9-2.5C241,126.7,239.7,124.3,239.1,121.1z"/>
			</g>
			<linearGradient id="XMLID_132_" gradientUnits="userSpaceOnUse" x1="99.8012" y1="57.2481" x2="100.6038" y2="124.659">
				<stop  offset="0" style="stop-color:#C7000B"/>
				<stop  offset="1" style="stop-color:#D80C24"/>
			</linearGradient>
			<polygon id="XMLID_107_" class="st3" points="85.1,61 85.1,140 115.4,123.9 115.4,45.3 			"/>
			<linearGradient id="XMLID_135_" gradientUnits="userSpaceOnUse" x1="16.7653" y1="33.3773" x2="115.3889" y2="33.3773">
				<stop  offset="0" style="stop-color:#C7000B"/>
				<stop  offset="1" style="stop-color:#D80C24"/>
			</linearGradient>
			<polygon id="XMLID_106_" class="st4" points="115.4,45.4 47.1,5.7 16.8,21.7 47.3,39.3 47.3,39.3 47.3,39.3 85.1,61.1 85.1,61.1 
				115.4,45.4 			"/>
			<linearGradient id="XMLID_137_" gradientUnits="userSpaceOnUse" x1="31.8884" y1="13.646" x2="49.6362" y2="28.4359">
				<stop  offset="0" style="stop-color:#A40000"/>
				<stop  offset="1" style="stop-color:#D01126"/>
			</linearGradient>
			<polygon id="XMLID_1_" class="st5" points="16.8,21.7 47.3,39.3 47.3,39.3 47.3,39.3 47.3,39.3 47.3,5.8 47.1,5.7 			"/>
		</g>
	</g>
</g>
</svg>
