<?xml version="1.0" encoding="utf-8"?>
<!-- Generator: Adobe Illustrator 19.0.0, SVG Export Plug-In . SVG Version: 6.00 Build 0)  -->
<svg version="1.1" id="圖層_1" xmlns="http://www.w3.org/2000/svg" xmlns:xlink="http://www.w3.org/1999/xlink" x="0px" y="0px"
	 viewBox="0 0 386.4 145.7" style="enable-background:new 0 0 386.4 145.7;" xml:space="preserve">
<style type="text/css">
	.st0{fill:#FFFFFF;}
</style>
<g id="XMLID_1_">
	<rect id="XMLID_223_" x="124.4" y="24.1" class="st0" width="11.6" height="57.3"/>
	<path id="XMLID_224_" class="st0" d="M181.9,43.6c-1-1.4-2.5-2.5-4.6-3.3c-2-0.9-4.2-1.3-6.6-1.3c-5.5,0-10.1,2.3-13.7,7v-6.1
		h-10.2v41.5h11V62.6c0-4.6,0.3-7.8,0.8-9.5c0.6-1.7,1.6-3.1,3.1-4.1c1.5-1,3.2-1.6,5.1-1.6c1.5,0,2.8,0.4,3.8,1.1s1.8,1.8,2.3,3.1
		c0.5,1.3,0.7,4.2,0.7,8.7v21.2h11V55.6c0-3.2-0.2-5.7-0.6-7.4C183.6,46.5,182.9,45,181.9,43.6z"/>
	<path id="XMLID_225_" class="st0" d="M197,81.4h11V48.6h8.2v-8.6H208V37c0-2.1,0.3-3.5,1-4.3c0.7-0.7,1.8-1.1,3.4-1.1
		c1.6,0,3.3,0.2,5,0.6l1.5-7.7c-3-0.9-6.1-1.4-9.2-1.4c-3,0-5.6,0.5-7.6,1.6c-2,1.1-3.4,2.5-4.1,4.2c-0.7,1.7-1.1,4.3-1.1,7.8v3.1
		H191v8.6h6.1V81.4z"/>
	<rect id="XMLID_226_" x="222.4" y="39.9" class="st0" width="11" height="41.5"/>
	<rect id="XMLID_227_" x="222.4" y="24.1" class="st0" width="11" height="10.2"/>
	<path id="XMLID_228_" class="st0" d="M279.6,43.6c-1-1.4-2.5-2.5-4.6-3.3c-2-0.9-4.2-1.3-6.6-1.3c-5.5,0-10.1,2.3-13.7,7v-6.1
		h-10.2v41.5h11V62.6c0-4.6,0.3-7.8,0.8-9.5c0.6-1.7,1.6-3.1,3.1-4.1c1.5-1,3.2-1.6,5.1-1.6c1.5,0,2.8,0.4,3.8,1.1s1.8,1.8,2.3,3.1
		c0.5,1.3,0.7,4.2,0.7,8.7v21.2h11V55.6c0-3.2-0.2-5.7-0.6-7.4C281.3,46.5,280.6,45,279.6,43.6z"/>
	<rect id="XMLID_229_" x="293.5" y="24.1" class="st0" width="11" height="10.2"/>
	<rect id="XMLID_230_" x="293.5" y="39.9" class="st0" width="11" height="41.5"/>
	<path id="XMLID_231_" class="st0" d="M330.3,73.2c-0.7,0-1.3-0.2-1.9-0.5c-0.5-0.4-0.8-0.8-1-1.4c-0.1-0.6-0.2-2.5-0.2-5.9V48.7
		h7.5v-8.7h-7.5V25.3l-11,6.4v8.2h-5v8.7h5v18.1c0,3.9,0.1,6.5,0.4,7.7c0.3,1.8,0.8,3.2,1.5,4.3c0.7,1.1,1.9,1.9,3.5,2.6
		c1.6,0.7,3.4,1,5.4,1c3.2,0,6.1-0.5,8.7-1.6l-0.9-8.5C332.8,72.9,331.3,73.2,330.3,73.2z"/>
	<path id="XMLID_234_" class="st0" d="M363.7,72.7c-1.2,0.9-2.6,1.4-4.3,1.4c-2.5,0-4.6-0.9-6.3-2.7c-1.7-1.8-2.6-4.3-2.7-7.6h27.5
		c0.2-8.4-1.5-14.7-5.1-18.7c-3.6-4.1-8.4-6.1-14.6-6.1c-5.5,0-10,1.9-13.6,5.8c-3.6,3.9-5.4,9.3-5.4,16.2c0,5.8,1.4,10.5,4.1,14.3
		c3.5,4.7,8.8,7.1,16,7.1c4.6,0,8.4-1,11.4-3.1c3-2.1,5.3-5.1,6.7-9.2l-10.9-1.8C365.8,70.3,364.9,71.8,363.7,72.7z M352.9,50
		c1.6-1.7,3.5-2.6,5.9-2.6c2.2,0,4.1,0.8,5.7,2.5c1.6,1.7,2.4,4.1,2.5,7.2h-16.4C350.6,54.1,351.3,51.7,352.9,50z"/>
	<polygon id="XMLID_235_" class="st0" points="129.4,93 124.2,93 124.2,132.4 148.8,132.4 148.8,127.8 129.4,127.8 	"/>
	<path id="XMLID_238_" class="st0" d="M177.5,120.4V114c0-2.2-0.1-3.6-0.2-4.5c-0.3-1.3-0.8-2.4-1.5-3.3c-0.7-0.9-1.8-1.6-3.4-2.2
		c-1.5-0.6-3.5-0.9-5.9-0.9c-2.5,0-4.6,0.3-6.5,1c-1.9,0.7-3.3,1.6-4.3,2.9c-1,1.2-1.7,2.9-2.1,4.9l4.7,0.6c0.5-2,1.3-3.4,2.4-4.2
		c1.1-0.8,2.8-1.2,5-1.2c2.4,0,4.3,0.5,5.5,1.6c0.9,0.8,1.4,2.2,1.4,4.2c0,0.2,0,0.6,0,1.3c-1.8,0.6-4.7,1.2-8.6,1.7
		c-1.9,0.2-3.4,0.5-4.3,0.7c-1.3,0.4-2.5,0.9-3.5,1.6c-1,0.7-1.9,1.6-2.5,2.8c-0.6,1.2-1,2.4-1,3.8c0,2.4,0.8,4.3,2.5,5.9
		c1.7,1.5,4.1,2.3,7.2,2.3c1.9,0,3.7-0.3,5.3-0.9c1.7-0.6,3.4-1.7,5.2-3.2c0.1,1.3,0.5,2.5,1,3.5h5.1c-0.6-1.1-1-2.2-1.2-3.4
		C177.6,127.8,177.5,124.9,177.5,120.4z M172.6,119.8c0,2.1-0.3,3.7-0.8,4.8c-0.7,1.4-1.7,2.5-3.2,3.3c-1.5,0.8-3.1,1.2-5,1.2
		c-1.9,0-3.3-0.4-4.3-1.3c-1-0.9-1.5-1.9-1.5-3.2c0-0.8,0.2-1.6,0.7-2.3c0.4-0.7,1.1-1.2,1.9-1.6c0.8-0.4,2.2-0.7,4.2-1
		c3.5-0.5,6.1-1.1,7.9-1.8V119.8z"/>
	<path id="XMLID_241_" class="st0" d="M206.5,107.3c-1-1.3-2.3-2.3-3.9-3c-1.6-0.7-3.2-1.1-5-1.1c-3.2,0-5.8,1.3-7.8,3.8V93H185
		v39.4h4.5v-3.6c1.9,2.8,4.6,4.2,7.9,4.2c3.4,0,6.3-1.3,8.7-4c2.4-2.7,3.6-6.5,3.6-11.3c0-2.1-0.3-4-0.9-5.8
		C208.3,110.1,207.5,108.5,206.5,107.3z M202.5,126.3c-1.5,1.8-3.4,2.8-5.5,2.8c-2.6,0-4.7-1.2-6.2-3.7c-0.9-1.5-1.4-4-1.4-7.4
		c0-3.5,0.8-6.1,2.3-8c1.5-1.8,3.4-2.8,5.5-2.8c2.1,0,3.9,0.9,5.4,2.7c1.5,1.8,2.2,4.5,2.2,8.3C204.8,121.7,204,124.5,202.5,126.3z"
		/>
	<path id="XMLID_242_" class="st0" d="M233.1,117.3c-1.4-0.6-3.7-1.3-7.2-2.2c-2.4-0.6-3.8-1.1-4.3-1.2c-0.8-0.3-1.5-0.8-1.9-1.3
		c-0.4-0.5-0.6-1.1-0.6-1.7c0-1,0.5-1.8,1.4-2.6c1-0.7,2.5-1.1,4.8-1.1c1.9,0,3.3,0.4,4.4,1.2c1,0.8,1.7,2,1.9,3.4l4.7-0.6
		c-0.3-1.8-0.9-3.3-1.7-4.4c-0.8-1.1-2.1-2-3.8-2.6s-3.7-1-5.9-1c-1.5,0-2.9,0.2-4.2,0.6c-1.3,0.4-2.3,0.9-3.1,1.4
		c-1,0.7-1.8,1.6-2.4,2.7c-0.6,1.1-0.9,2.3-0.9,3.5c0,1.4,0.4,2.7,1.1,3.8c0.7,1.2,1.7,2.1,3.1,2.7c1.4,0.7,3.8,1.4,7.4,2.3
		c2.6,0.7,4.3,1.2,4.9,1.6c0.9,0.6,1.4,1.5,1.4,2.6c0,1.2-0.5,2.3-1.6,3.2c-1.1,0.9-2.7,1.4-4.9,1.4c-2.2,0-3.9-0.5-5.1-1.5
		c-1.2-1-2-2.5-2.2-4.4l-4.8,0.8c0.5,3,1.8,5.3,3.7,6.9c1.9,1.5,4.8,2.3,8.5,2.3c2.2,0,4.2-0.4,6-1.2c1.8-0.8,3.1-1.9,4.1-3.3
		c0.9-1.4,1.4-2.9,1.4-4.6c0-1.6-0.4-3-1.2-4.1C235.5,118.8,234.4,117.9,233.1,117.3z"/>
	<polygon id="XMLID_243_" class="st0" points="20,35.4 51.7,53.7 26.2,65.6 26.2,131.4 51.7,119.5 51.7,53.7 83.4,72 83.4,137.8 
		108,124.8 108,59 44.6,22.3 	"/>
</g>
</svg>
